<svg width="24" height="25" viewBox="0 0 24 25" fill="none" xmlns="http://www.w3.org/2000/svg">
<g clip-path="url(#clip0_1365_1482)">
<path d="M16.5 1.56274C16.8978 1.56274 17.2794 1.72736 17.5607 2.02039C17.842 2.31342 18 2.71084 18 3.12524V21.8752C18 22.2896 17.842 22.6871 17.5607 22.9801C17.2794 23.2731 16.8978 23.4377 16.5 23.4377H7.5C7.10218 23.4377 6.72064 23.2731 6.43934 22.9801C6.15804 22.6871 6 22.2896 6 21.8752V3.12524C6 2.71084 6.15804 2.31342 6.43934 2.02039C6.72064 1.72736 7.10218 1.56274 7.5 1.56274H16.5ZM7.5 0.000244141C6.70435 0.000244141 5.94129 0.329484 5.37868 0.915536C4.81607 1.50159 4.5 2.29644 4.5 3.12524V21.8752C4.5 22.704 4.81607 23.4989 5.37868 24.085C5.94129 24.671 6.70435 25.0002 7.5 25.0002H16.5C17.2956 25.0002 18.0587 24.671 18.6213 24.085C19.1839 23.4989 19.5 22.704 19.5 21.8752V3.12524C19.5 2.29644 19.1839 1.50159 18.6213 0.915536C18.0587 0.329484 17.2956 0.000244141 16.5 0.000244141L7.5 0.000244141Z" fill="white"/>
<path d="M12 21.8752C12.3978 21.8752 12.7794 21.7106 13.0607 21.4176C13.342 21.1246 13.5 20.7271 13.5 20.3127C13.5 19.8983 13.342 19.5009 13.0607 19.2079C12.7794 18.9149 12.3978 18.7502 12 18.7502C11.6022 18.7502 11.2206 18.9149 10.9393 19.2079C10.658 19.5009 10.5 19.8983 10.5 20.3127C10.5 20.7271 10.658 21.1246 10.9393 21.4176C11.2206 21.7106 11.6022 21.8752 12 21.8752Z" fill="white"/>
</g>
<defs>
<clipPath id="clip0_1365_1482">
<rect width="24" height="25" fill="white" transform="translate(0 0.000244141)"/>
</clipPath>
</defs>
</svg>
