<svg width="17" height="17" viewBox="0 0 17 17" fill="none" xmlns="http://www.w3.org/2000/svg">
<path d="M8.62862 16.7571C6.37223 16.7571 6.10623 16.7451 5.22569 16.7066C4.53902 16.684 3.86124 16.5445 3.22154 16.2939C2.67412 16.0808 2.17698 15.7563 1.76169 15.3408C1.34641 14.9254 1.02205 14.4281 0.80922 13.8806C0.568269 13.2386 0.438308 12.5603 0.4249 11.8746C0.373535 10.9959 0.373535 10.7079 0.373535 8.46895C0.373535 6.20614 0.385459 5.94198 0.4249 5.06602C0.438601 4.38133 0.568558 3.70394 0.80922 3.06279C1.0218 2.51459 1.34638 2.01676 1.76222 1.60108C2.17806 1.1854 2.67601 0.861011 3.22429 0.648635C3.86511 0.406671 4.54267 0.276371 5.22752 0.263398C6.10348 0.213867 6.39149 0.213867 8.62862 0.213867C10.9034 0.213867 11.1648 0.225791 12.0315 0.263398C12.7176 0.276239 13.3982 0.406486 14.0403 0.648635C14.5884 0.861257 15.0863 1.18573 15.5021 1.60138C15.9179 2.01703 16.2425 2.51474 16.4554 3.06279C16.7003 3.71402 16.8314 4.40195 16.8415 5.09629C16.8929 5.975 16.8929 6.26209 16.8929 8.50014C16.8929 10.7382 16.88 11.0317 16.8415 11.9003C16.8278 12.5866 16.6975 13.2655 16.4563 13.9081C16.2429 14.456 15.9179 14.9536 15.502 15.3692C15.0861 15.7848 14.5883 16.1093 14.0403 16.3223C13.3982 16.5626 12.7204 16.6928 12.0352 16.7066C11.1593 16.7571 10.8722 16.7571 8.62862 16.7571ZM8.59743 1.66584C6.35389 1.66584 6.12091 1.67685 5.24495 1.71629C4.72181 1.72313 4.20371 1.81962 3.71318 2.00155C3.35539 2.13869 3.03032 2.34928 2.7589 2.61975C2.48749 2.89021 2.27576 3.21455 2.13737 3.57185C1.95393 4.06716 1.85762 4.5909 1.85211 5.11922C1.8035 6.00802 1.8035 6.241 1.8035 8.46895C1.8035 10.6703 1.81175 10.9372 1.85211 11.8205C1.86037 12.3433 1.95668 12.8616 2.13737 13.3523C2.41804 14.0742 2.9904 14.6447 3.71409 14.9217C4.20399 15.1047 4.72199 15.2013 5.24495 15.2069C6.13283 15.2583 6.36673 15.2583 8.59743 15.2583C10.8474 15.2583 11.0804 15.2473 11.949 15.2069C12.4722 15.2006 12.9904 15.1041 13.4808 14.9217C13.8366 14.7835 14.1599 14.5728 14.4299 14.3029C14.6999 14.033 14.9108 13.7099 15.0492 13.3541C15.2327 12.8588 15.329 12.3342 15.3345 11.8058H15.3446C15.384 10.929 15.384 10.6951 15.384 8.45428C15.384 6.21348 15.3739 5.97775 15.3345 5.10179C15.3262 4.57939 15.2298 4.06214 15.0492 3.57185C14.9112 3.21555 14.7004 2.89191 14.4303 2.62155C14.1603 2.3512 13.8369 2.14004 13.4808 2.00155C12.9905 1.81873 12.4722 1.72222 11.949 1.71629C11.062 1.66584 10.83 1.66584 8.59743 1.66584ZM8.62862 12.7056C7.78988 12.7062 6.96981 12.458 6.27215 11.9924C5.57448 11.5268 5.03055 10.8648 4.70916 10.0901C4.38777 9.31539 4.30335 8.46276 4.46658 7.64005C4.62981 6.81735 5.03336 6.06153 5.62618 5.46819C6.21901 4.87486 6.97448 4.47065 7.79704 4.30671C8.6196 4.14277 9.47231 4.22645 10.2473 4.54717C11.0223 4.86789 11.6848 5.41125 12.151 6.10851C12.6171 6.80577 12.866 7.62562 12.8662 8.46436C12.8648 9.58814 12.418 10.6655 11.6237 11.4605C10.8294 12.2555 9.75239 12.7032 8.62862 12.7056ZM8.62862 5.71084C8.08439 5.71084 7.55237 5.87222 7.09986 6.17458C6.64735 6.47694 6.29465 6.9067 6.08638 7.4095C5.87812 7.91231 5.82362 8.46558 5.9298 8.99936C6.03597 9.53314 6.29805 10.0234 6.68288 10.4083C7.06771 10.7931 7.55801 11.0552 8.09179 11.1614C8.62557 11.2675 9.17884 11.213 9.68165 11.0048C10.1845 10.7965 10.6142 10.4438 10.9166 9.99129C11.2189 9.53878 11.3803 9.00676 11.3803 8.46253C11.3786 7.73326 11.0882 7.03434 10.5725 6.51866C10.0568 6.00299 9.35789 5.71253 8.62862 5.71084ZM13.0313 5.05685C12.9015 5.05637 12.773 5.03031 12.6532 4.98018C12.5334 4.93004 12.4247 4.85681 12.3332 4.76465C12.1485 4.57853 12.0453 4.32664 12.0462 4.0644C12.0472 3.80217 12.1523 3.55105 12.3384 3.36631C12.5245 3.18157 12.7764 3.07833 13.0387 3.0793C13.3009 3.08027 13.552 3.18538 13.7368 3.3715C13.9215 3.55762 14.0247 3.8095 14.0238 4.07174C14.0228 4.33398 13.9177 4.58509 13.7316 4.76984C13.5455 4.95458 13.2936 5.05782 13.0313 5.05685Z" fill="#11111D"/>
</svg>
