<svg width="16" height="16" viewBox="0 0 16 16" fill="none" xmlns="http://www.w3.org/2000/svg">
<path fill-rule="evenodd" clip-rule="evenodd" d="M5.67722 5.57099H8.46272V6.95849C8.86397 6.16049 9.89297 5.44349 11.4387 5.44349C14.402 5.44349 15.1055 7.03199 15.1055 9.94649V15.3442H12.1055V10.6102C12.1055 8.95049 11.7042 8.01449 10.6827 8.01449C9.26597 8.01449 8.67722 9.02324 8.67722 10.6095V15.3442H5.67722V5.57099ZM0.532969 15.2167H3.53297V5.44349H0.532969V15.2167ZM3.96272 2.25674C3.96283 2.50819 3.91296 2.75716 3.81601 2.98918C3.71906 3.22119 3.57696 3.43162 3.39797 3.60824C3.03527 3.96871 2.54433 4.17048 2.03297 4.16924C1.52251 4.1689 1.0327 3.96764 0.669469 3.60899C0.491127 3.43177 0.349508 3.22111 0.252726 2.98906C0.155945 2.75702 0.105903 2.50816 0.105469 2.25674C0.105469 1.74899 0.307969 1.26299 0.670219 0.904488C1.03313 0.545357 1.52315 0.344014 2.03372 0.344238C2.54522 0.344238 3.03572 0.545988 3.39797 0.904488C3.75947 1.26299 3.96272 1.74899 3.96272 2.25674Z" fill="#11111D"/>
</svg>
