<svg width="18" height="22" viewBox="0 0 18 22" fill="none" xmlns="http://www.w3.org/2000/svg">
<path d="M9 12.2658C10.6569 12.2658 12 10.9623 12 9.35432C12 7.74637 10.6569 6.44287 9 6.44287C7.34315 6.44287 6 7.74637 6 9.35432C6 10.9623 7.34315 12.2658 9 12.2658Z" stroke="white" stroke-width="2" stroke-linecap="round" stroke-linejoin="round"/>
<path d="M9 1.59033C6.87827 1.59033 4.84344 2.40831 3.34315 3.86432C1.84285 5.32032 1 7.29509 1 9.3542C1 11.1904 1.402 12.3918 2.5 13.7214L9 21L15.5 13.7214C16.598 12.3918 17 11.1904 17 9.3542C17 7.29509 16.1571 5.32032 14.6569 3.86432C13.1566 2.40831 11.1217 1.59033 9 1.59033V1.59033Z" stroke="white" stroke-width="2" stroke-linecap="round" stroke-linejoin="round"/>
</svg>
