<svg width="24" height="16" viewBox="0 0 24 16" fill="none" xmlns="http://www.w3.org/2000/svg">
<path d="M15.2455 2.16858H8.75586V13.8307H15.2455V2.16858Z" fill="#FF5F00"/>
<path d="M9.16737 7.99998C9.16634 6.87683 9.42086 5.76817 9.91165 4.75792C10.4024 3.74768 11.1166 2.86233 12.0001 2.1689C10.906 1.30889 9.59201 0.774065 8.20829 0.62555C6.82457 0.477034 5.42699 0.720824 4.17527 1.32905C2.92356 1.93728 1.86822 2.88541 1.12988 4.06507C0.391546 5.24472 0 6.60831 0 7.99998C0 9.39164 0.391546 10.7552 1.12988 11.9349C1.86822 13.1145 2.92356 14.0627 4.17527 14.6709C5.42699 15.2791 6.82457 15.5229 8.20829 15.3744C9.59201 15.2259 10.906 14.6911 12.0001 13.8311C11.1166 13.1376 10.4024 12.2523 9.91165 11.242C9.42087 10.2318 9.16635 9.12312 9.16737 7.99998Z" fill="#EB001B"/>
<path d="M23.9998 7.99997C23.9998 9.39162 23.6083 10.7552 22.87 11.9349C22.1317 13.1145 21.0764 14.0627 19.8247 14.6709C18.5731 15.2791 17.1755 15.5229 15.7918 15.3744C14.4081 15.2259 13.0941 14.6911 12 13.8311C12.8828 13.1369 13.5964 12.2514 14.0871 11.2413C14.5778 10.2313 14.8328 9.12294 14.8328 7.99997C14.8328 6.877 14.5778 5.76869 14.0871 4.75861C13.5964 3.74852 12.8828 2.86303 12 2.1689C13.0941 1.30889 14.4081 0.774062 15.7918 0.625548C17.1755 0.477035 18.5731 0.720829 19.8247 1.32906C21.0764 1.9373 22.1317 2.88543 22.87 4.06509C23.6083 5.24475 23.9998 6.60833 23.9998 7.99997Z" fill="#F79E1B"/>
<path d="M23.2915 12.5956V12.3569H23.3878V12.3082H23.1426V12.3569H23.2389V12.5956H23.2915ZM23.7675 12.5956V12.3077H23.6923L23.6059 12.5058L23.5194 12.3077H23.4442V12.5956H23.4973V12.3785L23.5784 12.5657H23.6334L23.7145 12.378V12.5956H23.7675Z" fill="#F79E1B"/>
</svg>
