<svg width="16" height="15" viewBox="0 0 16 15" fill="none" xmlns="http://www.w3.org/2000/svg">
<path fill-rule="evenodd" clip-rule="evenodd" d="M14.0938 8.20312H2.84375V2.92968C2.84321 2.73109 2.88206 2.53436 2.95806 2.35088C3.03406 2.1674 3.1457 2.00082 3.28651 1.86078L3.29823 1.84906C3.51891 1.62871 3.80225 1.48185 4.10952 1.42857C4.4168 1.37528 4.73304 1.41816 5.01503 1.55135C4.74871 1.99414 4.63802 2.51323 4.70054 3.02615C4.76306 3.53906 4.9952 4.01637 5.36009 4.38222L5.68092 4.70305L5.09038 5.29362L5.75325 5.95649L6.34379 5.36595L6.91207 4.79768C6.93994 4.8715 6.96972 4.93934 7.00005 5.00001L8.5 6L10.5 4L11.5 2.00001C11.2466 1.83105 10.7619 1.62782 10.1371 1.57268L10.2065 1.50333L9.54356 0.840432L8.953 1.43097L8.63217 1.11014C8.24805 0.727091 7.7417 0.490966 7.20136 0.442912C6.66102 0.394858 6.12095 0.53792 5.67526 0.84717C5.20529 0.550367 4.64834 0.422235 4.09591 0.483823C3.54349 0.545411 3.02843 0.793056 2.63536 1.18608L2.62364 1.19779C2.39549 1.4247 2.21461 1.6946 2.09147 1.99188C1.96833 2.28916 1.90537 2.60791 1.90625 2.92968V8.20312H0.96875V9.14062H1.90625V10.04C1.90623 10.1156 1.91842 10.1907 1.94234 10.2624L2.81445 12.8786C2.86099 13.0186 2.95049 13.1405 3.07022 13.2268C3.18995 13.3131 3.33383 13.3595 3.48143 13.3594H3.85936L3.51758 14.5312H4.49413L4.83594 13.3594H10.9326L11.2842 14.5312H12.2627L11.9111 13.3594H12.5185C12.6661 13.3595 12.81 13.3131 12.9297 13.2268C13.0495 13.1405 13.139 13.0187 13.1855 12.8786L14.0576 10.2624C14.0815 10.1907 14.0937 10.1156 14.0938 10.04V9.14062H15.0312V8.20312H14.0938ZM8.13259 1.93639C8.08858 1.95665 8.04439 1.97784 8.00005 2.00001C7.16762 2.41622 6.84046 3.03094 6.76508 3.61883L6.34388 4.04003L6.02305 3.71926C5.76534 3.46097 5.62062 3.11101 5.62062 2.74615C5.62062 2.38129 5.76534 2.03133 6.02305 1.77304C6.28133 1.51532 6.63129 1.37058 6.99616 1.37058C7.36102 1.37058 7.71099 1.51532 7.96927 1.77304L8.13259 1.93639Z" fill="#234F68"/>
</svg>
