<svg width="30" height="30" viewBox="0 0 30 30" fill="none" xmlns="http://www.w3.org/2000/svg">
<path d="M12.9125 20.7412H5.03662" stroke="white" stroke-width="1.875" stroke-linecap="round" stroke-linejoin="round"/>
<path d="M16.4258 8.62559H24.3017" stroke="white" stroke-width="1.875" stroke-linecap="round" stroke-linejoin="round"/>
<path fill-rule="evenodd" clip-rule="evenodd" d="M10.9079 8.55782C10.9079 6.93825 9.58516 5.625 7.95393 5.625C6.3227 5.625 5 6.93825 5 8.55782C5 10.1774 6.3227 11.4906 7.95393 11.4906C9.58516 11.4906 10.9079 10.1774 10.9079 8.55782Z" stroke="white" stroke-width="1.875" stroke-linecap="round" stroke-linejoin="round"/>
<path fill-rule="evenodd" clip-rule="evenodd" d="M25.0001 20.6922C25.0001 19.0726 23.6785 17.7594 22.0472 17.7594C20.415 17.7594 19.0923 19.0726 19.0923 20.6922C19.0923 22.3118 20.415 23.625 22.0472 23.625C23.6785 23.625 25.0001 22.3118 25.0001 20.6922Z" stroke="white" stroke-width="1.875" stroke-linecap="round" stroke-linejoin="round"/>
</svg>
