<svg width="10" height="13" viewBox="0 0 10 13" fill="none" xmlns="http://www.w3.org/2000/svg">
<path d="M5 0.25C1.66875 3.09375 0 5.55 0 7.625C0 10.7375 2.375 12.75 5 12.75C7.625 12.75 10 10.7375 10 7.625C10 5.55 8.33125 3.09375 5 0.25ZM2.39375 7.75C2.625 7.75 2.8125 7.9125 2.85625 8.1375C3.1125 9.525 4.28125 10 5.13125 9.93125C5.4 9.91875 5.625 10.1312 5.625 10.4C5.625 10.65 5.425 10.8562 5.175 10.8687C3.84375 10.95 2.2875 10.1875 1.93125 8.29375C1.92039 8.22674 1.92421 8.15817 1.94245 8.09278C1.9607 8.0274 1.99292 7.96675 2.0369 7.91505C2.08089 7.86334 2.13557 7.8218 2.19719 7.7933C2.2588 7.7648 2.32587 7.75003 2.39375 7.75Z" fill="#234F68"/>
</svg>
