<svg width="16" height="16" viewBox="0 0 16 16" fill="none" xmlns="http://www.w3.org/2000/svg">
<rect width="16" height="16" rx="8" fill="#F5F4F8"/>
<path d="M8.00016 8.66683C8.36835 8.66683 8.66683 8.36835 8.66683 8.00016C8.66683 7.63197 8.36835 7.3335 8.00016 7.3335C7.63197 7.3335 7.3335 7.63197 7.3335 8.00016C7.3335 8.36835 7.63197 8.66683 8.00016 8.66683Z" stroke="#252B5C" stroke-width="1.41667" stroke-linecap="round" stroke-linejoin="round"/>
<path d="M8.00016 4.00014C8.36835 4.00014 8.66683 3.70167 8.66683 3.33348C8.66683 2.96529 8.36835 2.66681 8.00016 2.66681C7.63197 2.66681 7.3335 2.96529 7.3335 3.33348C7.3335 3.70167 7.63197 4.00014 8.00016 4.00014Z" stroke="#252B5C" stroke-width="1.41667" stroke-linecap="round" stroke-linejoin="round"/>
<path d="M8.00016 13.3335C8.36835 13.3335 8.66683 13.035 8.66683 12.6668C8.66683 12.2987 8.36835 12.0002 8.00016 12.0002C7.63197 12.0002 7.3335 12.2987 7.3335 12.6668C7.3335 13.035 7.63197 13.3335 8.00016 13.3335Z" stroke="#252B5C" stroke-width="1.41667" stroke-linecap="round" stroke-linejoin="round"/>
</svg>
