<svg width="16" height="16" viewBox="0 0 16 16" fill="none" xmlns="http://www.w3.org/2000/svg">
<g clip-path="url(#clip0_738_16900)">
<path d="M15.333 2.66669V6.66669H11.333" stroke="#252B5C" stroke-width="2" stroke-linecap="round" stroke-linejoin="round"/>
<path d="M13.6602 9.99999C13.2269 11.2266 12.4066 12.2791 11.323 12.999C10.2394 13.7188 8.95122 14.067 7.65253 13.991C6.35383 13.9151 5.11501 13.4191 4.12275 12.5778C3.13048 11.7365 2.43853 10.5955 2.15116 9.32669C1.86378 8.05792 1.99656 6.73011 2.52949 5.54337C3.06241 4.35662 3.9666 3.37523 5.10581 2.74708C6.24502 2.11893 7.55753 1.87806 8.84555 2.06075C10.1336 2.24345 11.3273 2.83981 12.2469 3.75999L15.3336 6.66666" stroke="#252B5C" stroke-width="2" stroke-linecap="round" stroke-linejoin="round"/>
</g>
<defs>
<clipPath id="clip0_738_16900">
<rect width="16" height="16" fill="white"/>
</clipPath>
</defs>
</svg>
